<svg data-v-2cb57da0="" version="1.0" xmlns="http://www.w3.org/2000/svg" xmlns:xlink="http://www.w3.org/1999/xlink"
	width="100%" height="100%" viewBox="0 0 340.000000 250.000000" preserveAspectRatio="xMidYMid meet"
	color-interpolation-filters="sRGB" style="margin: auto;">
	<rect data-v-2cb57da0="" x="0" y="0" width="100%" height="100%" fill="#073763" fill-opacity="0" class="background">
	</rect>
	<g data-v-2cb57da0="" fill="#6FA8DC" class="icon-text-wrapper icon-svg-group iconsvg"
		transform="translate(67.42322540283203,95.00029945373535)">
		<g class="iconsvg-imagesvg" transform="translate(0,0)">
			<g>
				<rect fill="#6FA8DC" fill-opacity="0" stroke-width="2" x="0" y="0" width="60" height="59.99940000599994"
					class="image-rect"></rect> 
				<svg x="0" y="0" width="60" height="59.99940000599994"
					filtersec="colorsb6571993251" class="image-svg-svg primary" style="overflow: visible;">
					<svg
						version="1.1" id="图层_1" xmlns="http://www.w3.org/2000/svg"
						xmlns:xlink="http://www.w3.org/1999/xlink" x="0px" y="0px"
						viewBox="0.10500144958496094 0.00025177001953125 99.65999603271484 99.6594467163086"
						enable-background="new 0 0 100 100" xml:space="preserve">
						<g>
							<g>

								<ellipse transform="matrix(0.7071 -0.7071 0.7071 0.7071 -20.6061 49.9058)"
									fill="#1891db" cx="49.94" cy="49.83" rx="17.04" ry="17.04"></ellipse>
							</g>
							<path fill="#1891db" d="M72.63,72.52L72.63,72.52c7.85-7.85,10.78-18.75,8.8-28.87c-1.58-16.62-8.96-30.72-17.01-41.5
		c7.59,2.3,14.74,6.45,20.75,12.45c19.46,19.46,19.46,51.01,0,70.47l0,0c-11.6,11.6-27.5,16.28-42.57,14.05
		c-4.51-7.94-7.14-15.21-8.64-21.45C46.22,84.71,62.15,83,72.63,72.52z"></path>
							<path fill="#cfe2f3" d="M57.27,0.54c4.51,7.94,7.14,15.21,8.64,21.45c-12.27-7.05-28.19-5.34-38.67,5.14l0,0
		C19.4,34.98,16.46,45.88,18.44,56c1.58,16.62,8.96,30.72,17.01,41.5c-7.59-2.3-14.75-6.45-20.75-12.45
		c-19.46-19.46-19.46-51.01,0-70.47l0,0C26.3,2.99,42.2-1.69,57.27,0.54z"></path>
						</g>
					</svg>
				</svg>
				<!---->
			</g>
		</g>
		<g transform="translate(67,7.906652450561523)">
			<g data-gra="path-name" fill-rule="" class="tp-name iconsvg-namesvg" transform="translate(0,0)">
				<g transform="scale(1)">
					<g>
						<path
							d="M9.23-5.46L9.23-5.46 9.23-9.92Q9.23-10.3 9.13-10.4 9.03-10.5 8.65-10.5L8.65-10.5 4.16-10.5 4.16-4.89 8.65-4.89Q9.03-4.89 9.13-5 9.23-5.11 9.23-5.46ZM1.66 0L1.66-11.6 10.24-11.6Q11.71-11.6 11.71-10.13L11.71-10.13 11.71-5.26Q11.71-3.79 10.24-3.79L10.24-3.79 4.16-3.79 4.16 0 1.66 0ZM16.92-5.39L16.92-1.1 23.11-1.1 23.11 0 14.34 0 14.34-11.6 22.85-11.6 22.85-10.5 16.92-10.5 16.92-6.49 22.08-6.49 22.08-5.39 16.92-5.39ZM24.08-11.6L34.51-11.6 34.51-10.5 30.53-10.5 30.53 0 28.03 0 28.03-10.5 24.08-10.5 24.08-11.6ZM38.89-5.39L38.89-1.1 45.08-1.1 45.08 0 36.31 0 36.31-11.6 44.82-11.6 44.82-10.5 38.89-10.5 38.89-6.49 44.05-6.49 44.05-5.39 38.89-5.39ZM54.56-10.5L50.04-10.5 50.04-5.26 54.56-5.26Q54.91-5.26 55.02-5.37 55.13-5.48 55.13-5.84L55.13-5.84 55.13-9.92Q55.13-10.3 55.02-10.4 54.91-10.5 54.56-10.5L54.56-10.5ZM52.65-4.16L50.04-4.16 50.04 0 47.54 0 47.54-11.6 56.14-11.6Q57.61-11.6 57.61-10.13L57.61-10.13 57.61-5.63Q57.61-4.16 56.14-4.16L56.14-4.16 55.15-4.16 57.78 0 55.19 0 52.65-4.16ZM78.21-1.75L81.21-11.6 83.65-11.6 79.79 0 76.68 0 74.1-8.93 71.55 0 68.43 0 64.59-11.6 67.13-11.6 70-1.75 72.81-11.6 75.39-11.6 78.21-1.75ZM90.76-10.03L88.35-3.39 93.18-3.39 90.76-10.03ZM96.89 0L94.43 0 93.59-2.29 87.96-2.29 87.12 0 84.68 0 89.13-11.6 92.42-11.6 96.89 0ZM107.04-2.59L107.04-11.6 109.33-11.6 109.33 0 107.06 0 101.33-9.05 101.33 0 99.04 0 99.04-11.6 101.39-11.6 107.04-2.59ZM122.35-10.13L122.35-7.96 119.84-7.96 119.84-9.92Q119.84-10.3 119.72-10.4 119.61-10.5 119.26-10.5L119.26-10.5 115.58-10.5Q115.21-10.5 115.11-10.4 115-10.3 115-9.92L115-9.92 115-1.68Q115-1.31 115.11-1.2 115.21-1.1 115.58-1.1L115.58-1.1 119.28-1.1Q119.65-1.1 119.75-1.2 119.85-1.31 119.85-1.68L119.85-1.68 119.85-4.87 117.26-4.87 117.26-5.97 122.35-5.97 122.35-1.47Q122.35 0 120.88 0L120.88 0 113.96 0Q112.49 0 112.49-1.47L112.49-1.47 112.49-10.13Q112.49-11.6 113.96-11.6L113.96-11.6 120.88-11.6Q122.35-11.6 122.35-10.13L122.35-10.13ZM124.74-7.27L124.74-11.6 127-11.6 127-7.27 124.74-7.27ZM136.58-1.68L136.58-1.68 136.58-4.72Q136.58-5.07 136.48-5.19 136.38-5.3 136.01-5.3L136.01-5.3 130.82-5.3Q129.35-5.3 129.35-6.77L129.35-6.77 129.35-10.13Q129.35-11.6 130.82-11.6L130.82-11.6 137.55-11.6Q139.03-11.6 139.03-10.13L139.03-10.13 139.03-8.13 136.51-8.13 136.51-9.92Q136.51-10.3 136.41-10.4 136.3-10.5 135.93-10.5L135.93-10.5 132.44-10.5Q132.09-10.5 131.98-10.4 131.87-10.3 131.87-9.92L131.87-9.92 131.87-6.98Q131.87-6.6 131.98-6.5 132.09-6.4 132.44-6.4L132.44-6.4 137.61-6.4Q139.08-6.4 139.08-4.92L139.08-4.92 139.08-1.47Q139.08 0 137.61 0L137.61 0 130.88 0Q129.4 0 129.4-1.47L129.4-1.47 129.4-3.47 131.9-3.47 131.9-1.68Q131.9-1.31 132.01-1.2 132.13-1.1 132.48-1.1L132.48-1.1 136.01-1.1Q136.38-1.1 136.48-1.2 136.58-1.31 136.58-1.68Z"
							transform="translate(-1.659999966621399, 11.600000381469727)"></path>
					</g>
					<!---->
					<!---->
					<!---->
					<!---->
					<!---->
					<!---->
					<g data-gra="path-name-1" fill="#CFE2F3" transform="translate(0,14.600000381469727)">
						<g transform="scale(1.00753)">
							<path
								d="M11.65-2.13L11.65-2.13 11.65-12.57Q11.65-13.04 11.52-13.17 11.39-13.3 10.91-13.3L10.91-13.3 5.27-13.3 5.27-1.39 10.91-1.39Q11.39-1.39 11.52-1.52 11.65-1.65 11.65-2.13ZM2.1 0L2.1-14.69 12.95-14.69Q14.81-14.69 14.81-12.83L14.81-12.83 14.81-1.87Q14.81 0 12.95 0L12.95 0 2.1 0ZM22.06-6.83L22.06-1.39 29.91-1.39 29.91 0 18.8 0 18.8-14.69 29.58-14.69 29.58-13.3 22.06-13.3 22.06-8.22 28.61-8.22 28.61-6.83 22.06-6.83ZM39.19-2.13L43.65-14.69 46.84-14.69 41.24 0 37.18 0 31.58-14.69 34.8-14.69 39.19-2.13ZM64.8-2.13L64.8-2.13 64.8-5.98Q64.8-6.43 64.67-6.57 64.54-6.71 64.06-6.71L64.06-6.71 57.5-6.71Q55.63-6.71 55.63-8.57L55.63-8.57 55.63-12.83Q55.63-14.69 57.5-14.69L57.5-14.69 66.03-14.69Q67.89-14.69 67.89-12.83L67.89-12.83 67.89-10.3 64.7-10.3 64.7-12.57Q64.7-13.04 64.57-13.17 64.44-13.3 63.97-13.3L63.97-13.3 59.55-13.3Q59.1-13.3 58.96-13.17 58.82-13.04 58.82-12.57L58.82-12.57 58.82-8.83Q58.82-8.36 58.96-8.23 59.1-8.1 59.55-8.1L59.55-8.1 66.1-8.1Q67.96-8.1 67.96-6.24L67.96-6.24 67.96-1.87Q67.96 0 66.1 0L66.1 0 57.57 0Q55.7 0 55.7-1.87L55.7-1.87 55.7-4.39 58.87-4.39 58.87-2.13Q58.87-1.65 59.01-1.52 59.15-1.39 59.6-1.39L59.6-1.39 64.06-1.39Q64.54-1.39 64.67-1.52 64.8-1.65 64.8-2.13ZM69.83-14.69L83.03-14.69 83.03-13.3 78-13.3 78 0 74.84 0 74.84-13.3 69.83-13.3 69.83-14.69ZM85.11-14.69L88.28-14.69 88.28-2.13Q88.28-1.65 88.42-1.52 88.56-1.39 89.01-1.39L89.01-1.39 93.92-1.39Q94.37-1.39 94.51-1.52 94.66-1.65 94.66-2.13L94.66-2.13 94.66-14.69 97.8-14.69 97.8-1.87Q97.8 0 95.93 0L95.93 0 86.98 0Q85.11 0 85.11-1.87L85.11-1.87 85.11-14.69ZM111.33-2.13L111.33-2.13 111.33-12.57Q111.33-13.04 111.2-13.17 111.07-13.3 110.6-13.3L110.6-13.3 104.95-13.3 104.95-1.39 110.6-1.39Q111.07-1.39 111.2-1.52 111.33-1.65 111.33-2.13ZM101.79 0L101.79-14.69 112.63-14.69Q114.5-14.69 114.5-12.83L114.5-12.83 114.5-1.87Q114.5 0 112.63 0L112.63 0 101.79 0ZM118.68 0L118.68-14.69 121.94-14.69 121.94 0 118.68 0ZM138.5-12.83L138.5-12.83 138.5-1.87Q138.5 0 136.63 0L136.63 0 127.99 0Q126.12 0 126.12-1.87L126.12-1.87 126.12-12.83Q126.12-14.69 127.99-14.69L127.99-14.69 136.63-14.69Q138.5-14.69 138.5-12.83ZM135.36-2.13L135.36-2.13 135.36-12.57Q135.36-13.04 135.23-13.17 135.1-13.3 134.62-13.3L134.62-13.3 130.02-13.3Q129.57-13.3 129.43-13.17 129.29-13.04 129.29-12.57L129.29-12.57 129.29-2.13Q129.29-1.65 129.43-1.52 129.57-1.39 130.02-1.39L130.02-1.39 134.62-1.39Q135.1-1.39 135.23-1.52 135.36-1.65 135.36-2.13Z"
								transform="translate(-2.0999999046325684, 14.6899995803833)"></path>
						</g>
					</g>
				</g>
			</g>
			<g data-gra="path-slogan" fill-rule="" class="tp-slogan iconsvg-slogansvg" fill="#1891DB"
				transform="translate(-0.7264556884765625,35.40061569213867)">
				<!---->
				<!---->
				<g mask="url(#7dedd69c-7bc9-417b-963b-02a9e366bf32)">
					<g>
						<rect data-gra="graph-name-bg" stroke-width="2" class="i-icon-bg" x="0" y="0"
							width="138.8800048828125" height="12.789999961853027" fill-opacity="1"></rect>
						<!---->
						<!---->
					</g>
					<g transform="translate(5,2)">
						<g transform="scale(1, 1)" fill="#073763">
							<g transform="scale(1)">
								<path
									d="M0.96-1.50L0.44-0.89C0.74-0.58 1.10-0.33 1.51-0.15C1.92 0.03 2.37 0.13 2.85 0.13C3.22 0.13 3.54 0.08 3.83-0.03C4.11-0.13 4.36-0.27 4.56-0.45C4.76-0.62 4.92-0.83 5.03-1.07C5.14-1.31 5.19-1.56 5.19-1.84C5.19-2.09 5.15-2.31 5.08-2.50C5.01-2.69 4.91-2.86 4.78-3.00C4.66-3.15 4.51-3.27 4.33-3.38C4.16-3.49 3.97-3.59 3.78-3.67L2.80-4.09C2.66-4.15 2.52-4.21 2.39-4.27C2.26-4.34 2.14-4.42 2.02-4.50C1.91-4.59 1.82-4.69 1.76-4.81C1.69-4.92 1.66-5.07 1.66-5.23C1.66-5.55 1.77-5.79 2.01-5.97C2.24-6.15 2.55-6.24 2.94-6.24C3.26-6.24 3.55-6.18 3.80-6.07C4.06-5.95 4.29-5.79 4.50-5.59L4.97-6.16C4.73-6.41 4.43-6.61 4.08-6.77C3.73-6.93 3.35-7.01 2.94-7.01C2.62-7.01 2.33-6.96 2.07-6.87C1.81-6.78 1.58-6.65 1.39-6.49C1.20-6.32 1.05-6.13 0.94-5.90C0.83-5.68 0.78-5.44 0.78-5.18C0.78-4.93 0.82-4.71 0.90-4.51C0.99-4.32 1.09-4.16 1.23-4.02C1.36-3.88 1.51-3.76 1.68-3.66C1.85-3.56 2.01-3.48 2.17-3.41L3.16-2.98C3.32-2.90 3.47-2.83 3.61-2.76C3.75-2.69 3.87-2.61 3.97-2.52C4.07-2.43 4.15-2.33 4.21-2.21C4.27-2.09 4.30-1.94 4.30-1.76C4.30-1.43 4.17-1.16 3.92-0.95C3.67-0.74 3.32-0.64 2.86-0.64C2.51-0.64 2.16-0.72 1.83-0.88C1.50-1.03 1.21-1.24 0.96-1.50ZM7.76-6.15L7.76 0L8.64 0L8.64-6.15L10.72-6.15L10.72-6.88L5.68-6.88L5.68-6.15ZM14.46-2.80L12.40-2.80L12.72-3.85C12.85-4.23 12.97-4.62 13.08-5.00C13.19-5.38 13.30-5.77 13.40-6.17L13.44-6.17C13.56-5.77 13.67-5.38 13.78-5.00C13.89-4.62 14.01-4.23 14.14-3.85ZM14.68-2.10L15.33 0L16.27 0L13.94-6.88L12.95-6.88L10.62 0L11.52 0L12.18-2.10ZM18.21-2.66L18.21 0L19.09 0L19.09-2.66L21.15-6.88L20.24-6.88L19.36-4.94C19.25-4.69 19.14-4.44 19.02-4.19C18.91-3.95 18.79-3.70 18.67-3.44L18.63-3.44C18.51-3.70 18.39-3.95 18.29-4.19C18.18-4.44 18.08-4.69 17.96-4.94L17.07-6.88L16.14-6.88ZM24.20-6.88L24.20 0L25.08 0L25.08-3.24L28.27-3.24L28.27 0L29.15 0L29.15-6.88L28.27-6.88L28.27-4.00L25.08-4.00L25.08-6.88ZM31.01-6.88L31.01-2.84C31.01-2.29 31.07-1.82 31.20-1.45C31.33-1.07 31.50-0.76 31.72-0.53C31.94-0.30 32.20-0.13 32.51-0.03C32.81 0.08 33.14 0.13 33.49 0.13C33.84 0.13 34.16 0.08 34.46-0.03C34.76-0.13 35.02-0.30 35.24-0.53C35.46-0.76 35.64-1.07 35.76-1.45C35.89-1.82 35.95-2.29 35.95-2.84L35.95-6.88L35.11-6.88L35.11-2.82C35.11-2.41 35.07-2.06 34.99-1.78C34.90-1.50 34.79-1.28 34.64-1.11C34.49-0.94 34.32-0.82 34.13-0.75C33.93-0.68 33.72-0.64 33.49-0.64C33.26-0.64 33.05-0.68 32.86-0.75C32.66-0.82 32.49-0.94 32.35-1.11C32.20-1.28 32.09-1.50 32.01-1.78C31.92-2.06 31.88-2.41 31.88-2.82L31.88-6.88ZM37.81-6.88L37.81 0L38.64 0L38.64-3.60C38.64-3.96 38.62-4.32 38.60-4.68C38.57-5.04 38.55-5.40 38.52-5.75L38.56-5.75L39.31-4.33L41.80 0L42.70 0L42.70-6.88L41.88-6.88L41.88-3.32C41.88-2.96 41.89-2.59 41.91-2.22C41.94-1.84 41.96-1.48 41.98-1.13L41.94-1.13L41.19-2.56L38.71-6.88ZM44.19-3.44C44.19-2.88 44.27-2.38 44.42-1.93C44.58-1.49 44.79-1.12 45.06-0.81C45.34-0.51 45.66-0.28 46.04-0.12C46.42 0.05 46.83 0.13 47.29 0.13C47.75 0.13 48.16 0.05 48.53-0.10C48.90-0.25 49.19-0.44 49.42-0.67L49.42-3.57L47.16-3.57L47.16-2.84L48.62-2.84L48.62-1.05C48.48-0.92 48.30-0.82 48.08-0.75C47.86-0.68 47.63-0.64 47.38-0.64C47.01-0.64 46.68-0.71 46.40-0.84C46.12-0.97 45.88-1.16 45.69-1.41C45.50-1.65 45.35-1.95 45.25-2.29C45.15-2.64 45.10-3.03 45.10-3.46C45.10-3.89 45.15-4.27 45.26-4.61C45.37-4.96 45.52-5.25 45.71-5.49C45.91-5.73 46.15-5.92 46.43-6.05C46.71-6.18 47.02-6.24 47.37-6.24C47.72-6.24 48.01-6.18 48.24-6.06C48.46-5.93 48.66-5.78 48.84-5.60L49.33-6.16C49.13-6.37 48.87-6.56 48.55-6.74C48.23-6.92 47.84-7.01 47.36-7.01C46.90-7.01 46.48-6.92 46.09-6.76C45.71-6.59 45.37-6.36 45.09-6.05C44.81-5.74 44.59-5.37 44.43-4.93C44.27-4.49 44.19-3.99 44.19-3.44ZM51.93-3.62L51.93-6.18L53.09-6.18C53.62-6.18 54.04-6.09 54.32-5.90C54.61-5.72 54.75-5.40 54.75-4.95C54.75-4.50 54.61-4.17 54.32-3.95C54.04-3.73 53.62-3.62 53.09-3.62ZM54.84 0L55.82 0L54.08-3.00C54.55-3.12 54.93-3.34 55.20-3.66C55.48-3.98 55.62-4.41 55.62-4.95C55.62-5.31 55.56-5.61 55.45-5.85C55.33-6.10 55.16-6.30 54.95-6.45C54.73-6.60 54.48-6.71 54.18-6.78C53.89-6.85 53.56-6.88 53.21-6.88L51.06-6.88L51.06 0L51.93 0L51.93-2.90L53.18-2.90ZM58.12-2.66L58.12 0L59.00 0L59.00-2.66L61.07-6.88L60.15-6.88L59.27-4.94C59.17-4.69 59.06-4.44 58.94-4.19C58.82-3.95 58.70-3.70 58.58-3.44L58.54-3.44C58.42-3.70 58.31-3.95 58.20-4.19C58.10-4.44 57.99-4.69 57.88-4.94L56.99-6.88L56.05-6.88ZM60.60 1.28L60.81 1.78C61.23 1.60 61.57 1.34 61.81 1.01C62.06 0.67 62.18 0.28 62.18-0.18C62.18-0.49 62.11-0.74 61.98-0.92C61.86-1.10 61.68-1.20 61.46-1.20C61.28-1.20 61.13-1.14 61.00-1.03C60.88-0.92 60.82-0.78 60.82-0.59C60.82-0.39 60.88-0.24 61.00-0.14C61.12-0.04 61.27 0.01 61.43 0.01C61.48 0.01 61.52 0.01 61.54 0C61.54 0.29 61.46 0.54 61.29 0.76C61.12 0.97 60.89 1.15 60.60 1.28ZM65.80-1.50L65.27-0.89C65.57-0.58 65.93-0.33 66.34-0.15C66.75 0.03 67.20 0.13 67.68 0.13C68.05 0.13 68.37 0.08 68.66-0.03C68.95-0.13 69.19-0.27 69.39-0.45C69.60-0.62 69.75-0.83 69.86-1.07C69.97-1.31 70.02-1.56 70.02-1.84C70.02-2.09 69.99-2.31 69.91-2.50C69.84-2.69 69.74-2.86 69.61-3.00C69.49-3.15 69.34-3.27 69.16-3.38C68.99-3.49 68.80-3.59 68.61-3.67L67.63-4.09C67.49-4.15 67.36-4.21 67.22-4.27C67.09-4.34 66.97-4.42 66.86-4.50C66.74-4.59 66.66-4.69 66.59-4.81C66.52-4.92 66.49-5.07 66.49-5.23C66.49-5.55 66.61-5.79 66.84-5.97C67.07-6.15 67.38-6.24 67.77-6.24C68.09-6.24 68.38-6.18 68.63-6.07C68.89-5.95 69.12-5.79 69.33-5.59L69.80-6.16C69.56-6.41 69.26-6.61 68.91-6.77C68.56-6.93 68.18-7.01 67.77-7.01C67.45-7.01 67.17-6.96 66.90-6.87C66.64-6.78 66.41-6.65 66.22-6.49C66.03-6.32 65.88-6.13 65.77-5.90C65.66-5.68 65.61-5.44 65.61-5.18C65.61-4.93 65.65-4.71 65.73-4.51C65.82-4.32 65.93-4.16 66.06-4.02C66.19-3.88 66.34-3.76 66.51-3.66C66.68-3.56 66.84-3.48 67.00-3.41L67.99-2.98C68.15-2.90 68.30-2.83 68.44-2.76C68.58-2.69 68.70-2.61 68.80-2.52C68.90-2.43 68.98-2.33 69.04-2.21C69.10-2.09 69.13-1.94 69.13-1.76C69.13-1.43 69.01-1.16 68.75-0.95C68.50-0.74 68.15-0.64 67.70-0.64C67.34-0.64 66.99-0.72 66.66-0.88C66.33-1.03 66.04-1.24 65.80-1.50ZM72.59-6.15L72.59 0L73.47 0L73.47-6.15L75.55-6.15L75.55-6.88L70.52-6.88L70.52-6.15ZM79.29-2.80L77.23-2.80L77.55-3.85C77.68-4.23 77.80-4.62 77.91-5.00C78.02-5.38 78.13-5.77 78.23-6.17L78.28-6.17C78.39-5.77 78.50-5.38 78.61-5.00C78.72-4.62 78.84-4.23 78.97-3.85ZM79.51-2.10L80.16 0L81.10 0L78.77-6.88L77.78-6.88L75.46 0L76.35 0L77.01-2.10ZM83.04-2.66L83.04 0L83.92 0L83.92-2.66L85.98-6.88L85.07-6.88L84.19-4.94C84.09-4.69 83.97-4.44 83.86-4.19C83.74-3.95 83.62-3.70 83.50-3.44L83.46-3.44C83.34-3.70 83.23-3.95 83.12-4.19C83.02-4.44 82.91-4.69 82.80-4.94L81.91-6.88L80.97-6.88ZM89.04-6.88L89.04 0L89.91 0L89.91-3.08L92.53-3.08L92.53-3.82L89.91-3.82L89.91-6.15L93.00-6.15L93.00-6.88ZM96.65 0.13C97.08 0.13 97.48 0.04 97.84-0.13C98.20-0.29 98.51-0.53 98.77-0.84C99.04-1.16 99.24-1.53 99.38-1.98C99.53-2.42 99.60-2.92 99.60-3.47C99.60-4.02 99.53-4.51 99.38-4.94C99.24-5.38 99.04-5.75 98.77-6.06C98.51-6.36 98.20-6.59 97.84-6.76C97.48-6.92 97.08-7.01 96.65-7.01C96.22-7.01 95.82-6.93 95.46-6.76C95.10-6.60 94.79-6.37 94.53-6.07C94.27-5.76 94.07-5.39 93.93-4.96C93.79-4.52 93.71-4.02 93.71-3.47C93.71-2.92 93.79-2.42 93.93-1.98C94.07-1.53 94.27-1.16 94.53-0.84C94.79-0.53 95.10-0.29 95.46-0.13C95.82 0.04 96.22 0.13 96.65 0.13ZM96.65-0.64C96.34-0.64 96.06-0.71 95.82-0.84C95.57-0.97 95.36-1.16 95.18-1.41C95.00-1.66 94.86-1.96 94.76-2.30C94.66-2.65 94.62-3.04 94.62-3.47C94.62-3.90 94.66-4.28 94.76-4.62C94.86-4.97 95.00-5.26 95.18-5.50C95.36-5.73 95.57-5.92 95.82-6.05C96.06-6.18 96.34-6.24 96.65-6.24C96.96-6.24 97.24-6.18 97.48-6.05C97.73-5.92 97.95-5.73 98.12-5.50C98.30-5.26 98.44-4.97 98.54-4.62C98.64-4.28 98.69-3.90 98.69-3.47C98.69-3.04 98.64-2.65 98.54-2.30C98.44-1.96 98.30-1.66 98.12-1.41C97.95-1.16 97.73-0.97 97.48-0.84C97.24-0.71 96.96-0.64 96.65-0.64ZM103.61 0.13C104.05 0.13 104.44 0.04 104.80-0.13C105.16-0.29 105.48-0.53 105.74-0.84C106.00-1.16 106.20-1.53 106.35-1.98C106.49-2.42 106.56-2.92 106.56-3.47C106.56-4.02 106.49-4.51 106.35-4.94C106.20-5.38 106.00-5.75 105.74-6.06C105.48-6.36 105.16-6.59 104.80-6.76C104.44-6.92 104.05-7.01 103.61-7.01C103.18-7.01 102.78-6.93 102.42-6.76C102.06-6.60 101.75-6.37 101.50-6.07C101.24-5.76 101.04-5.39 100.89-4.96C100.75-4.52 100.68-4.02 100.68-3.47C100.68-2.92 100.75-2.42 100.89-1.98C101.04-1.53 101.24-1.16 101.50-0.84C101.75-0.53 102.06-0.29 102.42-0.13C102.78 0.04 103.18 0.13 103.61 0.13ZM103.61-0.64C103.31-0.64 103.03-0.71 102.78-0.84C102.53-0.97 102.32-1.16 102.14-1.41C101.96-1.66 101.82-1.96 101.73-2.30C101.63-2.65 101.58-3.04 101.58-3.47C101.58-3.90 101.63-4.28 101.73-4.62C101.82-4.97 101.96-5.26 102.14-5.50C102.32-5.73 102.53-5.92 102.78-6.05C103.03-6.18 103.31-6.24 103.61-6.24C103.92-6.24 104.20-6.18 104.45-6.05C104.70-5.92 104.91-5.73 105.09-5.50C105.27-5.26 105.40-4.97 105.50-4.62C105.60-4.28 105.65-3.90 105.65-3.47C105.65-3.04 105.60-2.65 105.50-2.30C105.40-1.96 105.27-1.66 105.09-1.41C104.91-1.16 104.70-0.97 104.45-0.84C104.20-0.71 103.92-0.64 103.61-0.64ZM108.04-6.88L108.04 0L111.92 0L111.92-0.74L108.91-0.74L108.91-6.88ZM113.14-6.88L113.14 0L114.01 0L114.01-6.88ZM115.92-1.50L115.39-0.89C115.69-0.58 116.05-0.33 116.46-0.15C116.87 0.03 117.32 0.13 117.80 0.13C118.17 0.13 118.49 0.08 118.78-0.03C119.07-0.13 119.31-0.27 119.51-0.45C119.72-0.62 119.87-0.83 119.98-1.07C120.09-1.31 120.14-1.56 120.14-1.84C120.14-2.09 120.11-2.31 120.03-2.50C119.96-2.69 119.86-2.86 119.73-3.00C119.61-3.15 119.46-3.27 119.28-3.38C119.11-3.49 118.92-3.59 118.73-3.67L117.75-4.09C117.61-4.15 117.47-4.21 117.34-4.27C117.21-4.34 117.09-4.42 116.97-4.50C116.86-4.59 116.77-4.69 116.71-4.81C116.64-4.92 116.61-5.07 116.61-5.23C116.61-5.55 116.72-5.79 116.96-5.97C117.19-6.15 117.50-6.24 117.89-6.24C118.21-6.24 118.50-6.18 118.75-6.07C119.01-5.95 119.24-5.79 119.45-5.59L119.92-6.16C119.68-6.41 119.38-6.61 119.03-6.77C118.68-6.93 118.30-7.01 117.89-7.01C117.57-7.01 117.28-6.96 117.02-6.87C116.76-6.78 116.53-6.65 116.34-6.49C116.15-6.32 116.00-6.13 115.89-5.90C115.78-5.68 115.73-5.44 115.73-5.18C115.73-4.93 115.77-4.71 115.85-4.51C115.94-4.32 116.04-4.16 116.18-4.02C116.31-3.88 116.46-3.76 116.63-3.66C116.80-3.56 116.96-3.48 117.12-3.41L118.11-2.98C118.27-2.90 118.42-2.83 118.56-2.76C118.70-2.69 118.82-2.61 118.92-2.52C119.02-2.43 119.10-2.33 119.16-2.21C119.22-2.09 119.25-1.94 119.25-1.76C119.25-1.43 119.12-1.16 118.87-0.95C118.62-0.74 118.27-0.64 117.81-0.64C117.46-0.64 117.11-0.72 116.78-0.88C116.45-1.03 116.16-1.24 115.92-1.50ZM121.49-6.88L121.49 0L122.37 0L122.37-3.24L125.56-3.24L125.56 0L126.44 0L126.44-6.88L125.56-6.88L125.56-4.00L122.37-4.00L122.37-6.88ZM128.07-0.52C128.07-0.34 128.13-0.18 128.25-0.06C128.38 0.06 128.52 0.13 128.70 0.13C128.87 0.13 129.01 0.06 129.13-0.06C129.26-0.18 129.32-0.34 129.32-0.52C129.32-0.73 129.26-0.89 129.13-1.01C129.01-1.13 128.87-1.20 128.70-1.20C128.52-1.20 128.38-1.13 128.25-1.01C128.13-0.89 128.07-0.73 128.07-0.52Z"
									transform="translate(-0.4404646660212971, 7.005485640529201)"></path>
							</g>
						</g>
					</g>
				</g>
			</g>
		</g>
	</g>
	<mask id="7dedd69c-7bc9-417b-963b-02a9e366bf32">
		<g fill="white">
			<rect data-gra="graph-name-bg" stroke-width="2" class="i-icon-bg" x="0" y="0" width="138.8800048828125"
				height="12.789999961853027" fill-opacity="1"></rect>
		</g>
		<g transform="translate(5,2)" fill="black">
			<g transform="scale(1, 1)">
				<g transform="scale(1)">
					<path
						d="M0.96-1.50L0.44-0.89C0.74-0.58 1.10-0.33 1.51-0.15C1.92 0.03 2.37 0.13 2.85 0.13C3.22 0.13 3.54 0.08 3.83-0.03C4.11-0.13 4.36-0.27 4.56-0.45C4.76-0.62 4.92-0.83 5.03-1.07C5.14-1.31 5.19-1.56 5.19-1.84C5.19-2.09 5.15-2.31 5.08-2.50C5.01-2.69 4.91-2.86 4.78-3.00C4.66-3.15 4.51-3.27 4.33-3.38C4.16-3.49 3.97-3.59 3.78-3.67L2.80-4.09C2.66-4.15 2.52-4.21 2.39-4.27C2.26-4.34 2.14-4.42 2.02-4.50C1.91-4.59 1.82-4.69 1.76-4.81C1.69-4.92 1.66-5.07 1.66-5.23C1.66-5.55 1.77-5.79 2.01-5.97C2.24-6.15 2.55-6.24 2.94-6.24C3.26-6.24 3.55-6.18 3.80-6.07C4.06-5.95 4.29-5.79 4.50-5.59L4.97-6.16C4.73-6.41 4.43-6.61 4.08-6.77C3.73-6.93 3.35-7.01 2.94-7.01C2.62-7.01 2.33-6.96 2.07-6.87C1.81-6.78 1.58-6.65 1.39-6.49C1.20-6.32 1.05-6.13 0.94-5.90C0.83-5.68 0.78-5.44 0.78-5.18C0.78-4.93 0.82-4.71 0.90-4.51C0.99-4.32 1.09-4.16 1.23-4.02C1.36-3.88 1.51-3.76 1.68-3.66C1.85-3.56 2.01-3.48 2.17-3.41L3.16-2.98C3.32-2.90 3.47-2.83 3.61-2.76C3.75-2.69 3.87-2.61 3.97-2.52C4.07-2.43 4.15-2.33 4.21-2.21C4.27-2.09 4.30-1.94 4.30-1.76C4.30-1.43 4.17-1.16 3.92-0.95C3.67-0.74 3.32-0.64 2.86-0.64C2.51-0.64 2.16-0.72 1.83-0.88C1.50-1.03 1.21-1.24 0.96-1.50ZM7.76-6.15L7.76 0L8.64 0L8.64-6.15L10.72-6.15L10.72-6.88L5.68-6.88L5.68-6.15ZM14.46-2.80L12.40-2.80L12.72-3.85C12.85-4.23 12.97-4.62 13.08-5.00C13.19-5.38 13.30-5.77 13.40-6.17L13.44-6.17C13.56-5.77 13.67-5.38 13.78-5.00C13.89-4.62 14.01-4.23 14.14-3.85ZM14.68-2.10L15.33 0L16.27 0L13.94-6.88L12.95-6.88L10.62 0L11.52 0L12.18-2.10ZM18.21-2.66L18.21 0L19.09 0L19.09-2.66L21.15-6.88L20.24-6.88L19.36-4.94C19.25-4.69 19.14-4.44 19.02-4.19C18.91-3.95 18.79-3.70 18.67-3.44L18.63-3.44C18.51-3.70 18.39-3.95 18.29-4.19C18.18-4.44 18.08-4.69 17.96-4.94L17.07-6.88L16.14-6.88ZM24.20-6.88L24.20 0L25.08 0L25.08-3.24L28.27-3.24L28.27 0L29.15 0L29.15-6.88L28.27-6.88L28.27-4.00L25.08-4.00L25.08-6.88ZM31.01-6.88L31.01-2.84C31.01-2.29 31.07-1.82 31.20-1.45C31.33-1.07 31.50-0.76 31.72-0.53C31.94-0.30 32.20-0.13 32.51-0.03C32.81 0.08 33.14 0.13 33.49 0.13C33.84 0.13 34.16 0.08 34.46-0.03C34.76-0.13 35.02-0.30 35.24-0.53C35.46-0.76 35.64-1.07 35.76-1.45C35.89-1.82 35.95-2.29 35.95-2.84L35.95-6.88L35.11-6.88L35.11-2.82C35.11-2.41 35.07-2.06 34.99-1.78C34.90-1.50 34.79-1.28 34.64-1.11C34.49-0.94 34.32-0.82 34.13-0.75C33.93-0.68 33.72-0.64 33.49-0.64C33.26-0.64 33.05-0.68 32.86-0.75C32.66-0.82 32.49-0.94 32.35-1.11C32.20-1.28 32.09-1.50 32.01-1.78C31.92-2.06 31.88-2.41 31.88-2.82L31.88-6.88ZM37.81-6.88L37.81 0L38.64 0L38.64-3.60C38.64-3.96 38.62-4.32 38.60-4.68C38.57-5.04 38.55-5.40 38.52-5.75L38.56-5.75L39.31-4.33L41.80 0L42.70 0L42.70-6.88L41.88-6.88L41.88-3.32C41.88-2.96 41.89-2.59 41.91-2.22C41.94-1.84 41.96-1.48 41.98-1.13L41.94-1.13L41.19-2.56L38.71-6.88ZM44.19-3.44C44.19-2.88 44.27-2.38 44.42-1.93C44.58-1.49 44.79-1.12 45.06-0.81C45.34-0.51 45.66-0.28 46.04-0.12C46.42 0.05 46.83 0.13 47.29 0.13C47.75 0.13 48.16 0.05 48.53-0.10C48.90-0.25 49.19-0.44 49.42-0.67L49.42-3.57L47.16-3.57L47.16-2.84L48.62-2.84L48.62-1.05C48.48-0.92 48.30-0.82 48.08-0.75C47.86-0.68 47.63-0.64 47.38-0.64C47.01-0.64 46.68-0.71 46.40-0.84C46.12-0.97 45.88-1.16 45.69-1.41C45.50-1.65 45.35-1.95 45.25-2.29C45.15-2.64 45.10-3.03 45.10-3.46C45.10-3.89 45.15-4.27 45.26-4.61C45.37-4.96 45.52-5.25 45.71-5.49C45.91-5.73 46.15-5.92 46.43-6.05C46.71-6.18 47.02-6.24 47.37-6.24C47.72-6.24 48.01-6.18 48.24-6.06C48.46-5.93 48.66-5.78 48.84-5.60L49.33-6.16C49.13-6.37 48.87-6.56 48.55-6.74C48.23-6.92 47.84-7.01 47.36-7.01C46.90-7.01 46.48-6.92 46.09-6.76C45.71-6.59 45.37-6.36 45.09-6.05C44.81-5.74 44.59-5.37 44.43-4.93C44.27-4.49 44.19-3.99 44.19-3.44ZM51.93-3.62L51.93-6.18L53.09-6.18C53.62-6.18 54.04-6.09 54.32-5.90C54.61-5.72 54.75-5.40 54.75-4.95C54.75-4.50 54.61-4.17 54.32-3.95C54.04-3.73 53.62-3.62 53.09-3.62ZM54.84 0L55.82 0L54.08-3.00C54.55-3.12 54.93-3.34 55.20-3.66C55.48-3.98 55.62-4.41 55.62-4.95C55.62-5.31 55.56-5.61 55.45-5.85C55.33-6.10 55.16-6.30 54.95-6.45C54.73-6.60 54.48-6.71 54.18-6.78C53.89-6.85 53.56-6.88 53.21-6.88L51.06-6.88L51.06 0L51.93 0L51.93-2.90L53.18-2.90ZM58.12-2.66L58.12 0L59.00 0L59.00-2.66L61.07-6.88L60.15-6.88L59.27-4.94C59.17-4.69 59.06-4.44 58.94-4.19C58.82-3.95 58.70-3.70 58.58-3.44L58.54-3.44C58.42-3.70 58.31-3.95 58.20-4.19C58.10-4.44 57.99-4.69 57.88-4.94L56.99-6.88L56.05-6.88ZM60.60 1.28L60.81 1.78C61.23 1.60 61.57 1.34 61.81 1.01C62.06 0.67 62.18 0.28 62.18-0.18C62.18-0.49 62.11-0.74 61.98-0.92C61.86-1.10 61.68-1.20 61.46-1.20C61.28-1.20 61.13-1.14 61.00-1.03C60.88-0.92 60.82-0.78 60.82-0.59C60.82-0.39 60.88-0.24 61.00-0.14C61.12-0.04 61.27 0.01 61.43 0.01C61.48 0.01 61.52 0.01 61.54 0C61.54 0.29 61.46 0.54 61.29 0.76C61.12 0.97 60.89 1.15 60.60 1.28ZM65.80-1.50L65.27-0.89C65.57-0.58 65.93-0.33 66.34-0.15C66.75 0.03 67.20 0.13 67.68 0.13C68.05 0.13 68.37 0.08 68.66-0.03C68.95-0.13 69.19-0.27 69.39-0.45C69.60-0.62 69.75-0.83 69.86-1.07C69.97-1.31 70.02-1.56 70.02-1.84C70.02-2.09 69.99-2.31 69.91-2.50C69.84-2.69 69.74-2.86 69.61-3.00C69.49-3.15 69.34-3.27 69.16-3.38C68.99-3.49 68.80-3.59 68.61-3.67L67.63-4.09C67.49-4.15 67.36-4.21 67.22-4.27C67.09-4.34 66.97-4.42 66.86-4.50C66.74-4.59 66.66-4.69 66.59-4.81C66.52-4.92 66.49-5.07 66.49-5.23C66.49-5.55 66.61-5.79 66.84-5.97C67.07-6.15 67.38-6.24 67.77-6.24C68.09-6.24 68.38-6.18 68.63-6.07C68.89-5.95 69.12-5.79 69.33-5.59L69.80-6.16C69.56-6.41 69.26-6.61 68.91-6.77C68.56-6.93 68.18-7.01 67.77-7.01C67.45-7.01 67.17-6.96 66.90-6.87C66.64-6.78 66.41-6.65 66.22-6.49C66.03-6.32 65.88-6.13 65.77-5.90C65.66-5.68 65.61-5.44 65.61-5.18C65.61-4.93 65.65-4.71 65.73-4.51C65.82-4.32 65.93-4.16 66.06-4.02C66.19-3.88 66.34-3.76 66.51-3.66C66.68-3.56 66.84-3.48 67.00-3.41L67.99-2.98C68.15-2.90 68.30-2.83 68.44-2.76C68.58-2.69 68.70-2.61 68.80-2.52C68.90-2.43 68.98-2.33 69.04-2.21C69.10-2.09 69.13-1.94 69.13-1.76C69.13-1.43 69.01-1.16 68.75-0.95C68.50-0.74 68.15-0.64 67.70-0.64C67.34-0.64 66.99-0.72 66.66-0.88C66.33-1.03 66.04-1.24 65.80-1.50ZM72.59-6.15L72.59 0L73.47 0L73.47-6.15L75.55-6.15L75.55-6.88L70.52-6.88L70.52-6.15ZM79.29-2.80L77.23-2.80L77.55-3.85C77.68-4.23 77.80-4.62 77.91-5.00C78.02-5.38 78.13-5.77 78.23-6.17L78.28-6.17C78.39-5.77 78.50-5.38 78.61-5.00C78.72-4.62 78.84-4.23 78.97-3.85ZM79.51-2.10L80.16 0L81.10 0L78.77-6.88L77.78-6.88L75.46 0L76.35 0L77.01-2.10ZM83.04-2.66L83.04 0L83.92 0L83.92-2.66L85.98-6.88L85.07-6.88L84.19-4.94C84.09-4.69 83.97-4.44 83.86-4.19C83.74-3.95 83.62-3.70 83.50-3.44L83.46-3.44C83.34-3.70 83.23-3.95 83.12-4.19C83.02-4.44 82.91-4.69 82.80-4.94L81.91-6.88L80.97-6.88ZM89.04-6.88L89.04 0L89.91 0L89.91-3.08L92.53-3.08L92.53-3.82L89.91-3.82L89.91-6.15L93.00-6.15L93.00-6.88ZM96.65 0.13C97.08 0.13 97.48 0.04 97.84-0.13C98.20-0.29 98.51-0.53 98.77-0.84C99.04-1.16 99.24-1.53 99.38-1.98C99.53-2.42 99.60-2.92 99.60-3.47C99.60-4.02 99.53-4.51 99.38-4.94C99.24-5.38 99.04-5.75 98.77-6.06C98.51-6.36 98.20-6.59 97.84-6.76C97.48-6.92 97.08-7.01 96.65-7.01C96.22-7.01 95.82-6.93 95.46-6.76C95.10-6.60 94.79-6.37 94.53-6.07C94.27-5.76 94.07-5.39 93.93-4.96C93.79-4.52 93.71-4.02 93.71-3.47C93.71-2.92 93.79-2.42 93.93-1.98C94.07-1.53 94.27-1.16 94.53-0.84C94.79-0.53 95.10-0.29 95.46-0.13C95.82 0.04 96.22 0.13 96.65 0.13ZM96.65-0.64C96.34-0.64 96.06-0.71 95.82-0.84C95.57-0.97 95.36-1.16 95.18-1.41C95.00-1.66 94.86-1.96 94.76-2.30C94.66-2.65 94.62-3.04 94.62-3.47C94.62-3.90 94.66-4.28 94.76-4.62C94.86-4.97 95.00-5.26 95.18-5.50C95.36-5.73 95.57-5.92 95.82-6.05C96.06-6.18 96.34-6.24 96.65-6.24C96.96-6.24 97.24-6.18 97.48-6.05C97.73-5.92 97.95-5.73 98.12-5.50C98.30-5.26 98.44-4.97 98.54-4.62C98.64-4.28 98.69-3.90 98.69-3.47C98.69-3.04 98.64-2.65 98.54-2.30C98.44-1.96 98.30-1.66 98.12-1.41C97.95-1.16 97.73-0.97 97.48-0.84C97.24-0.71 96.96-0.64 96.65-0.64ZM103.61 0.13C104.05 0.13 104.44 0.04 104.80-0.13C105.16-0.29 105.48-0.53 105.74-0.84C106.00-1.16 106.20-1.53 106.35-1.98C106.49-2.42 106.56-2.92 106.56-3.47C106.56-4.02 106.49-4.51 106.35-4.94C106.20-5.38 106.00-5.75 105.74-6.06C105.48-6.36 105.16-6.59 104.80-6.76C104.44-6.92 104.05-7.01 103.61-7.01C103.18-7.01 102.78-6.93 102.42-6.76C102.06-6.60 101.75-6.37 101.50-6.07C101.24-5.76 101.04-5.39 100.89-4.96C100.75-4.52 100.68-4.02 100.68-3.47C100.68-2.92 100.75-2.42 100.89-1.98C101.04-1.53 101.24-1.16 101.50-0.84C101.75-0.53 102.06-0.29 102.42-0.13C102.78 0.04 103.18 0.13 103.61 0.13ZM103.61-0.64C103.31-0.64 103.03-0.71 102.78-0.84C102.53-0.97 102.32-1.16 102.14-1.41C101.96-1.66 101.82-1.96 101.73-2.30C101.63-2.65 101.58-3.04 101.58-3.47C101.58-3.90 101.63-4.28 101.73-4.62C101.82-4.97 101.96-5.26 102.14-5.50C102.32-5.73 102.53-5.92 102.78-6.05C103.03-6.18 103.31-6.24 103.61-6.24C103.92-6.24 104.20-6.18 104.45-6.05C104.70-5.92 104.91-5.73 105.09-5.50C105.27-5.26 105.40-4.97 105.50-4.62C105.60-4.28 105.65-3.90 105.65-3.47C105.65-3.04 105.60-2.65 105.50-2.30C105.40-1.96 105.27-1.66 105.09-1.41C104.91-1.16 104.70-0.97 104.45-0.84C104.20-0.71 103.92-0.64 103.61-0.64ZM108.04-6.88L108.04 0L111.92 0L111.92-0.74L108.91-0.74L108.91-6.88ZM113.14-6.88L113.14 0L114.01 0L114.01-6.88ZM115.92-1.50L115.39-0.89C115.69-0.58 116.05-0.33 116.46-0.15C116.87 0.03 117.32 0.13 117.80 0.13C118.17 0.13 118.49 0.08 118.78-0.03C119.07-0.13 119.31-0.27 119.51-0.45C119.72-0.62 119.87-0.83 119.98-1.07C120.09-1.31 120.14-1.56 120.14-1.84C120.14-2.09 120.11-2.31 120.03-2.50C119.96-2.69 119.86-2.86 119.73-3.00C119.61-3.15 119.46-3.27 119.28-3.38C119.11-3.49 118.92-3.59 118.73-3.67L117.75-4.09C117.61-4.15 117.47-4.21 117.34-4.27C117.21-4.34 117.09-4.42 116.97-4.50C116.86-4.59 116.77-4.69 116.71-4.81C116.64-4.92 116.61-5.07 116.61-5.23C116.61-5.55 116.72-5.79 116.96-5.97C117.19-6.15 117.50-6.24 117.89-6.24C118.21-6.24 118.50-6.18 118.75-6.07C119.01-5.95 119.24-5.79 119.45-5.59L119.92-6.16C119.68-6.41 119.38-6.61 119.03-6.77C118.68-6.93 118.30-7.01 117.89-7.01C117.57-7.01 117.28-6.96 117.02-6.87C116.76-6.78 116.53-6.65 116.34-6.49C116.15-6.32 116.00-6.13 115.89-5.90C115.78-5.68 115.73-5.44 115.73-5.18C115.73-4.93 115.77-4.71 115.85-4.51C115.94-4.32 116.04-4.16 116.18-4.02C116.31-3.88 116.46-3.76 116.63-3.66C116.80-3.56 116.96-3.48 117.12-3.41L118.11-2.98C118.27-2.90 118.42-2.83 118.56-2.76C118.70-2.69 118.82-2.61 118.92-2.52C119.02-2.43 119.10-2.33 119.16-2.21C119.22-2.09 119.25-1.94 119.25-1.76C119.25-1.43 119.12-1.16 118.87-0.95C118.62-0.74 118.27-0.64 117.81-0.64C117.46-0.64 117.11-0.72 116.78-0.88C116.45-1.03 116.16-1.24 115.92-1.50ZM121.49-6.88L121.49 0L122.37 0L122.37-3.24L125.56-3.24L125.56 0L126.44 0L126.44-6.88L125.56-6.88L125.56-4.00L122.37-4.00L122.37-6.88ZM128.07-0.52C128.07-0.34 128.13-0.18 128.25-0.06C128.38 0.06 128.52 0.13 128.70 0.13C128.87 0.13 129.01 0.06 129.13-0.06C129.26-0.18 129.32-0.34 129.32-0.52C129.32-0.73 129.26-0.89 129.13-1.01C129.01-1.13 128.87-1.20 128.70-1.20C128.52-1.20 128.38-1.13 128.25-1.01C128.13-0.89 128.07-0.73 128.07-0.52Z"
						transform="translate(-0.4404646660212971, 7.005485640529201)"></path>
				</g>
			</g>
		</g>
	</mask>
	<defs v-gra="od"></defs>
</svg>